<svg width="0" height="0">
<symbol id="user" viewBox="0 0 24 24" id="user" data-name="Flat Color" xmlns="http://www.w3.org/2000/svg" class="icon flat-color">
  <path id="primary" d="M21,20a2,2,0,0,1-2,2H5a2,2,0,0,1-2-2,6,6,0,0,1,6-6h6A6,6,0,0,1,21,20Zm-9-8A5,5,0,1,0,7,7,5,5,0,0,0,12,12Z" style="fill: rgb(0, 0, 0);">
  </path>
</symbol>
<symbol id="tiktok" fill="currentColor" viewBox="0 0 24 24" xmlns="http://www.w3.org/2000/svg" xml:space="preserve">
    <path d="M19.589 6.686a4.793 4.793 0 0 1-3.77-4.245V2h-3.445v13.672a2.896 2.896 0 0 1-5.201 1.743l-.002-.001.002.001a2.895 2.895 0 0 1 3.183-4.51v-3.5a6.329 6.329 0 0 0-5.394 10.692 6.33 6.33 0 0 0 10.857-4.424V8.687a8.182 8.182 0 0 0 4.773 1.526V6.79a4.831 4.831 0 0 1-1.003-.104z"></path>
  </symbol>
<symbol fill="#ffd900ff" id="stars" viewBox="0 0 24 24" xmlns="http://www.w3.org/2000/svg">
  <path d="M21.5,9.757l-5.278,4.354L17.871,21.5,12,17.278,6.129,21.5l1.649-7.389L2.5,9.757l6.333-.924L12,2.5l3.167,6.333Z"/>
</symbol>
<symbol fill="#fff"  id="bags" viewBox="0 0 24 24" xmlns="http://www.w3.org/2000/svg">
  <path d="M19,6H16V5a2,2,0,0,0-2-2H10A2,2,0,0,0,8,5V6H5A3,3,0,0,0,2,9v9a3,3,0,0,0,3,3H19a3,3,0,0,0,3-3V9A3,3,0,0,0,19,6ZM10,5h4V6H10ZM20,18a1,1,0,0,1-1,1H5a1,1,0,0,1-1-1V12.39L8.68,14A1.19,1.19,0,0,0,9,14h6a1.19,1.19,0,0,0,.32-.05L20,12.39Zm0-7.72L14.84,12H9.16L4,10.28V9A1,1,0,0,1,5,8H19a1,1,0,0,1,1,1Z"/>
</symbol>

<symbol id="basket" fill="#000000" viewBox="0 0 1024 1024" xmlns="http://www.w3.org/2000/svg">
  <path d="M1015.66 284a31.82 31.82 0 0 0-25.998-13.502H310.526l-51.408-177.28c-20.16-69.808-68.065-77.344-87.713-77.344H34.333c-17.569 0-31.777 14.224-31.777 31.776S16.78 79.425 34.332 79.425h137.056c4.336 0 17.568 0 26.593 31.184l176.848 649.936c3.84 13.712 16.336 23.183 30.591 23.183h431.968c13.409 0 25.376-8.4 29.905-21.024l152.256-449.68c3.504-9.744 2.048-20.592-3.888-29.024zM815.026 720.194H429.539L328.387 334.066h616.096zM752.003 848.13c-44.192 0-80 35.808-80 80s35.808 80 80 80 80-35.808 80-80-35.808-80-80-80zm-288 0c-44.192 0-80 35.808-80 80s35.808 80 80 80 80-35.808 80-80-35.808-80-80-80z"/>
</symbol>

<symbol id="ebay" xmlns="http://www.w3.org/2000/svg" width="117" height="48" viewBox="0 0 122 48.592" id="gh-logo" aria-labelledby="ebayLogoTitle"><title id="ebayLogoTitle">eBay-Startseite</title><g><path fill="#F02D2D" d="M24.355 22.759c-.269-5.738-4.412-7.838-8.826-7.813-4.756.026-8.544 2.459-9.183 7.915zM6.234 26.93c.364 5.553 4.208 8.814 9.476 8.785 3.648-.021 6.885-1.524 7.952-4.763l6.306-.035c-1.187 6.568-8.151 8.834-14.145 8.866C4.911 39.844.043 33.865-.002 25.759c-.05-8.927 4.917-14.822 15.765-14.884 8.628-.048 14.978 4.433 15.033 14.291l.01 1.625z"></path><path fill="#0968F6" d="M46.544 35.429c5.688-.032 9.543-4.148 9.508-10.32s-3.947-10.246-9.622-10.214-9.543 4.148-9.509 10.32 3.974 10.245 9.623 10.214zM30.652.029l6.116-.034.085 15.369c2.978-3.588 7.1-4.65 11.167-4.674 6.817-.037 14.412 4.518 14.468 14.454.045 8.29-5.941 14.407-14.422 14.454-4.463.026-8.624-1.545-11.218-4.681a33.237 33.237 0 01-.19 3.731l-5.994.034c.09-1.915.185-4.364.174-6.322z"></path><path fill="#FFBD14" d="M77.282 25.724c-5.548.216-8.985 1.229-8.965 4.883.013 2.365 1.94 4.919 6.7 4.891 6.415-.035 9.826-3.556 9.794-9.289v-.637c-2.252.02-5.039.054-7.529.152zm13.683 7.506c.01 1.778.071 3.538.232 5.1l-5.688.032a33.381 33.381 0 01-.225-3.825c-3.052 3.8-6.708 4.909-11.783 4.938-7.532.042-11.585-3.915-11.611-8.518-.037-6.665 5.434-9.049 14.954-9.318 2.6-.072 5.529-.1 7.945-.116v-.637c-.026-4.463-2.9-6.285-7.854-6.257-3.68.021-6.368 1.561-6.653 4.2l-6.434.035c.645-6.566 7.53-8.269 13.595-8.3 7.263-.04 13.406 2.508 13.448 10.192z"></path><path fill="#92C821" d="M91.939 19.852l-4.5-8.362 7.154-.04 10.589 20.922 10.328-21.02 6.486-.048-18.707 37.251-6.85.039 5.382-10.348-9.887-18.393"></path></g></symbol>
  <symbol id="market" viewBox="0 -2.72 54.624 54.624" xmlns="http://www.w3.org/2000/svg">
    <g id="Group_38" data-name="Group 38" transform="translate(-150.273 -1577.233)">
      <path id="Path_98" data-name="Path 98" d="M159.723,1596.869v13.651h32.746l6.107-13.651Z" fill="#d1d3d4"/>
      <path id="Path_99" data-name="Path 99" d="M152.273,1579.233h7.683v31.286h32.513l10.428-23.312h-39.26" fill="none" stroke="#231f20" stroke-linecap="round" stroke-linejoin="round" stroke-width="4"/>
      <path id="Path_100" data-name="Path 100" d="M167.668,1620.451a3.972,3.972,0,1,1-3.973-3.973A3.972,3.972,0,0,1,167.668,1620.451Z" fill="#ffffff" stroke="#231f20" stroke-linecap="round" stroke-linejoin="round" stroke-width="4"/>
      <path id="Path_101" data-name="Path 101" d="M187.532,1620.451a3.973,3.973,0,1,1-3.972-3.973A3.972,3.972,0,0,1,187.532,1620.451Z" fill="#ffffff" stroke="#231f20" stroke-linecap="round" stroke-linejoin="round" stroke-width="4"/>
    </g>
  </symbol>
  
  <symbol id="users" viewBox="-17 0 512 512" version="1.1" xmlns="http://www.w3.org/2000/svg">
    <path d="M341 138C341 67.3075 300.856 16 239 16C177.144 16 137 67.3075 137 138C137 231.394 189 221.676 189 269C189 287.649 139 288 139 288C59.471 288 0 352.471 0 432V464C0 490.51 21.4903 512 48 512H431C457.51 512 479 490.51 479 464V432C479 352.471 418.529 288 339 288C339 288 289 287.649 289 269C289 221.676 341 231.394 341 138Z">
    </path>
  </symbol>

  <symbol xmlns="http://www.w3.org/2000/svg" id="interview" viewBox="0 0 30 26">
    <defs>
      <style>
        .cls-1 {
          fill: #fff;
        }
      </style>
    </defs>
    <path class="cls-1" d="M27.58,14.22c.54.85,1.08,1.71,1.62,2.56.14.22.25.43.08.67-.17.23-.4.21-.65.15-1.28-.29-2.56-.57-3.85-.84-.14-.03-.31-.02-.44.04-1.9.87-3.86,1.06-5.88.59-.05-.01-.09-.02-.14-.03-.02,0-.04,0-.06,0-.07.5-.11,1.01-.21,1.51-.7,3.78-3.91,6.71-7.73,7.09-1.64.16-3.19-.11-4.68-.8-.13-.06-.3-.08-.44-.05-1.3.28-2.6.57-3.9.86-.25.06-.46.05-.62-.17-.16-.22-.07-.42.05-.62.51-.81,1.02-1.62,1.54-2.42.1-.16.11-.26,0-.43-3.63-5.05-1.06-12.14,4.97-13.69,1.43-.37,2.87-.37,4.3-.02.06.01.11.02.15.03C12.2,3.95,14.61.86,19.38.12c3.6-.56,6.58.86,8.55,3.93,2.18,3.39,1.87,6.82-.34,10.16ZM2.04,24.84c1.08-.24,2.08-.45,3.07-.69.29-.07.54-.03.8.1,1.44.72,2.97.97,4.56.75,4.22-.59,7.18-4.37,6.77-8.62-.43-4.42-4.52-7.66-8.92-7.01-2.96.44-5.09,2.07-6.22,4.84-1.14,2.79-.7,5.43,1.1,7.85.28.37.29.46.04.85-.39.62-.78,1.24-1.22,1.92ZM27.91,16.48c-.41-.65-.78-1.24-1.16-1.83-.33-.52-.32-.54.04-1.02,1.33-1.76,1.88-3.74,1.56-5.92-.64-4.28-4.4-7.17-8.7-6.73-3.9.4-7,3.82-7,7.75,0,.18.04.26.22.34,3.02,1.39,4.79,3.72,5.28,7.01.03.22.13.29.31.33,1.95.5,3.83.32,5.65-.55.18-.09.43-.12.63-.08,1.04.21,2.07.44,3.18.69Z"/>
    <path class="cls-1" d="M9.87,17.15v1.87h-.93v-1.61c0-.13,0-.25,0-.38,0-.65.02-.68.67-.79.7-.12,1.21-.73,1.18-1.43-.02-.69-.58-1.27-1.26-1.33-.7-.06-1.33.4-1.49,1.1-.02.08-.03.17-.05.27h-.88c-.1-1.03.77-2.06,1.91-2.27,1.15-.21,2.3.53,2.62,1.69.29,1.05-.21,2.47-1.78,2.89Z"/>
    <path class="cls-1" d="M10.1,20.66c0,.38-.32.7-.7.69-.38,0-.69-.33-.69-.71,0-.37.32-.67.69-.68.38,0,.7.31.7.7Z"/>
    <path class="cls-1" d="M24.24,5.6v.89h-7.39v-.89h7.39Z"/>
    <path class="cls-1" d="M24.24,8.38v.89h-7.39v-.89h7.39Z"/>
    <path class="cls-1" d="M24.24,11.17v.89h-5.53v-.89h5.53Z"/>
  </symbol>

  <defs>
    <linearGradient id="mailGradient" gradientTransform="rotate(81 .5 .5)">
      <stop offset="0%"  stop-color="#74A37C"/>
      <stop offset="2%"  stop-color="#74A37C"/>
      <stop offset="53%" stop-color="#91C299"/>
      <stop offset="97%" stop-color="#A9DCB1"/>
      <stop offset="100%" stop-color="#ABDEB3"/>
    </linearGradient>
  </defs>

  <defs>
    <linearGradient id="phoneGradient" gradientTransform="rotate(81 .5 .5)">
      <stop offset="0%"  stop-color="#74A37C"/>
      <stop offset="2%"  stop-color="#74A37C"/>
      <stop offset="53%" stop-color="#91C299"/>
      <stop offset="97%" stop-color="#A9DCB1"/>
      <stop offset="100%" stop-color="#ABDEB3"/>
    </linearGradient>
  </defs>


<symbol id="world" xmlns="http://www.w3.org/2000/svg" 
	 viewBox="0 0 52 52" enable-background="new 0 0 52 52" xml:space="preserve">
<path d="M26,2C12.7,2,2,12.7,2,26s10.7,24,24,24s24-10.7,24-24S39.3,2,26,2z M26,7C26,7,26,7,26,7C26,7,26,7,26,7
	C26,7,26,7,26,7z M28,7.1c-0.1,0-0.1,0-0.2,0C27.9,7.1,28,7.1,28,7.1z M26,45C15.5,45,7,36.5,7,26c0-1,0.1-2.1,0.3-3
	c1.3,0.2,2.9,0.7,3.7,1.5c1.7,1.8,3.6,3.9,5.4,4.3c0,0-0.2,0.1-0.4,0.4c-0.2,0.3-0.4,0.9-0.4,1.9c0,4.7,4.4,1.9,4.4,6.6
	c0,4.7,5.3,6.6,5.3,2.8s3.5-5.6,3.5-8.5s-2.7-2.8-4.4-3.8c-1.8-0.9-2.7-2.4-6.1-1.9c-1.8-1.7-2.8-3.1-2-4.7c0.9-1.7,4.6-2,4.6-4.6
	s-2.5-3.1-4.3-3.1c-0.8,0-2.5-0.6-3.9-1.3c1.7-1.7,3.8-3.1,6-4.1c1.6,0.7,4.3,1.8,6.6,1.8c2.7,0,4.1-1.9,3.7-3.1
	c4.5,0.7,8.5,3,11.4,6.2c-1.5,0.9-3.5,1.9-7,1.9c-4.6,0-4.6,4.7-1.9,5.6c2.8,0.9,5.6-1.8,6.5,0c0.9,1.8-6.5,1.8-4.6,6.4
	c1.9,4.6,3.7-0.1,5.6,4.5c1.9,4.6,5.6-0.7,2.8-4.3c-1.2-1.6-0.9-6.5,1.9-6.5h0.9c0.4,1.6,0.7,3.3,0.7,5C45,36.5,36.5,45,26,45z"/>
</symbol>

<symbol id="user" viewBox="0 0 16 16" version="1.1" xmlns="http://www.w3.org/2000/svg" xmlns:xlink="http://www.w3.org/1999/xlink">
  <rect width="16" height="16" id="icon-bound" fill="none" />
  <path d="M8,8c2.209,0,4-1.791,4-4s-1.791-4-4-4S4,1.791,4,4S5.791,8,8,8z M12,10H4c-2.209,0-4,1.791-4,4v2h16v-2 C16,11.791,14.209,10,12,10z" />
</symbol>


<symbol fill="#000000"  viewBox="0 0 24 24" id="search" data-name="Line Color" xmlns="http://www.w3.org/2000/svg" class="icon line-color"><line id="secondary" x1="20" y1="20" x2="14.95" y2="14.95" style="fill: none; stroke: rgba(0, 0, 0, 1); stroke-linecap: round; stroke-linejoin: round; stroke-width: 2;"></line><line id="secondary-upstroke" x1="20.5" y1="20.5" x2="17" y2="17" style="fill: none; stroke: rgba(0, 0, 0, 1); stroke-linecap: round; stroke-linejoin: round; stroke-width: 2;"></line><circle id="primary" cx="10" cy="10" r="7" style="fill: none; stroke: rgb(0, 0, 0); stroke-linecap: round; stroke-linejoin: round; stroke-width: 2;"></circle></symbol>

<symbol version="1.1" id="hour-icon" xmlns="http://www.w3.org/2000/svg" xmlns:xlink="http://www.w3.org/1999/xlink" x="0px" y="0px"
	 viewBox="0 0 142.447 142.447" style="enable-background:new 0 0 142.447 142.447;" xml:space="preserve">
<g>
	<path style="fill:#fff;" d="M71.224,0C31.951,0,0,31.951,0,71.224s31.951,71.224,71.224,71.224s71.224-31.951,71.224-71.224
		S110.496,0,71.224,0z M71.224,127.447C40.222,127.447,15,102.226,15,71.224S40.222,15,71.224,15s56.224,25.222,56.224,56.224
		S102.226,127.447,71.224,127.447z"/>
	<path style="fill:#fff;" d="M100.923,72.016H71.724V46.724c0-4.143-3.357-7.5-7.5-7.5s-7.5,3.357-7.5,7.5v32.792
		c0,4.143,3.357,7.5,7.5,7.5h36.699c4.143,0,7.5-3.357,7.5-7.5S105.065,72.016,100.923,72.016z"/>
</g>
</symbol>

<symbol id="maps" viewBox="0 0 24 24" xmlns="http://www.w3.org/2000/svg">
  <path fill-rule="evenodd" d="M12,2 C16.9705627,2 21,5.98572446 21,10.9023647 C21,14.1558559 18.2776716,17.5957933 12.9482526,21.3431516 L12,22 L11.4277959,21.6050955 C5.85042064,17.7558913 3,14.2315185 3,10.9023647 C3,5.98572446 7.02943725,2 12,2 Z M12,3.97830328 C8.13400675,3.97830328 5,7.07831119 5,10.9023647 C5,13.3048538 7.29671943,16.236445 12,19.5818284 C16.7032806,16.236445 19,13.3048538 19,10.9023647 C19,7.07831119 15.8659932,3.97830328 12,3.97830328 Z M12,6 C14.209139,6 16,7.790861 16,10 C16,12.209139 14.209139,14 12,14 C9.790861,14 8,12.209139 8,10 C8,7.790861 9.790861,6 12,6 Z M12,8 C10.8954305,8 10,8.8954305 10,10 C10,11.1045695 10.8954305,12 12,12 C13.1045695,12 14,11.1045695 14,10 C14,8.8954305 13.1045695,8 12,8 Z"/>
</symbol>

  <symbol version="1.1" xmlns="http://www.w3.org/2000/svg" xmlns:xlink="http://www.w3.org/1999/xlink" viewBox="0 0 24 24" id="chevron-down">
    <path d="M8,10l4,4l4,-4" stroke-linecap="round" stroke-width="1.5" stroke="CurrentColor" fill="none" stroke-linejoin="round"></path>
    <path fill="none" d="M0,0h24v24h-24Z"></path>
  </symbol>
  <symbol id="email-svg" xmlns="http://www.w3.org/2000/svg" version="1.1" viewBox="0 0 24 18">
    <g>
      <g>
        <g>
          <path fill="currentColor" d="M0,16.1c0-3.7,0-7.4,0-11.1,0,0,0,0,.1,0,3.2,2.2,6.5,4.3,9.7,6.5,1.4.9,2.9.9,4.2,0,3.2-2.2,6.5-4.3,9.7-6.5,0,0,0,0,.2,0,0,0,0,.1,0,.2,0,3.5,0,7.1,0,10.6,0,0,0,.2,0,.3-.2,1.1-1.1,1.9-2.3,1.9-6.5,0-12.9,0-19.4,0,0,0-.1,0-.2,0-1,0-1.8-.7-2.1-1.6,0,0,0-.2,0-.3Z"></path>
          <path fill="currentColor" d="M0,1.9c.2-.3.3-.7.5-1C.9.3,1.5,0,2.2,0c.4,0,.9,0,1.3,0,6.1,0,12.1,0,18.2,0,1.2,0,2.1.7,2.3,1.9.2.9-.2,1.6-.9,2.1-.7.5-1.5,1-2.2,1.5-2.5,1.6-4.9,3.3-7.4,4.9-1,.7-1.8.7-2.9,0-3.1-2-6.1-4.1-9.2-6.1C.7,3.9.2,3.4,0,2.6c0-.2,0-.5,0-.7Z"></path>
        </g>
      </g>
    </g>
  </symbol>
  <symbol id="footer_home" xmlns="http://www.w3.org/2000/svg" viewBox="0 0 21 21">
    <path fill="currentColor" d="M11.01.01c.47.15.82.46,1.16.8,2.72,2.73,5.45,5.46,8.18,8.19.18.18.36.37.46.6.58,1.3-.18,2.74-1.66,2.81-.11,0-.23,0-.37,0,0,.1,0,.18,0,.26,0,2.06,0,4.12,0,6.17,0,1.13-1.03,2.13-2.15,2.14-1.14,0-2.28,0-3.43,0-.4,0-.65-.26-.65-.68,0-1.59,0-3.17,0-4.76,0-.73-.4-1.14-1.14-1.15-.59,0-1.18.01-1.76,0-.75-.02-1.14.57-1.13,1.14.02,1.57,0,3.15,0,4.72,0,.49-.24.73-.72.73-1.08,0-2.16,0-3.24,0-1.25,0-2.25-.95-2.27-2.19-.02-2.04,0-4.08-.01-6.11,0-.08,0-.16,0-.24-.26-.02-.5-.02-.73-.07-.72-.16-1.21-.6-1.43-1.3-.22-.69-.08-1.32.4-1.87.07-.08.14-.15.21-.22C3.41,6.27,6.12,3.57,8.82.86c.35-.36.71-.69,1.21-.85h.98ZM13.77,19.75c.09,0,.15,0,.21,0,.81,0,1.61,0,2.42,0,.71,0,1.13-.43,1.13-1.14,0-2.25,0-4.5,0-6.75,0-.43.25-.68.69-.68.29,0,.57,0,.86,0,.34,0,.6-.22.68-.55.09-.34-.1-.57-.32-.79-2.77-2.77-5.54-5.54-8.31-8.31-.43-.43-.78-.43-1.21,0-2.47,2.47-4.94,4.94-7.41,7.41-.34.34-.69.68-1.03,1.03-.22.23-.3.49-.16.79.13.28.36.42.67.42.26,0,.52,0,.78,0,.51,0,.74.23.74.74,0,2.23,0,4.46,0,6.69,0,.73.42,1.15,1.14,1.15.8,0,1.6,0,2.4,0h.22c0-.1,0-.18,0-.26,0-1.42,0-2.85.02-4.27.02-.99.89-1.95,1.88-2.02.9-.06,1.82-.06,2.72,0,.98.07,1.85,1.05,1.87,2.03.03,1.42.01,2.83.02,4.25,0,.08,0,.16,0,.27Z"></path>
  </symbol>
  <symbol id="trustpilot-mini" viewBox="0 0 799.89 761" xmlns="http://www.w3.org/2000/svg">
    <path d="M799.89 290.83H494.44L400.09 0l-94.64 290.83L0 290.54l247.37 179.92L152.72 761l247.37-179.63L647.16 761l-94.35-290.54z" fill="#00b67a"></path>
    <path d="M574.04 536.24l-21.23-65.78-152.72 110.91z" fill="#005128"></path>
  </symbol>
  <symbol id="google-mini" xmlns="http://www.w3.org/2000/svg" x="0px" y="0px" viewBox="0 0 48 48">
    <path fill="#FFC107" d="M43.611,20.083H42V20H24v8h11.303c-1.649,4.657-6.08,8-11.303,8c-6.627,0-12-5.373-12-12c0-6.627,5.373-12,12-12c3.059,0,5.842,1.154,7.961,3.039l5.657-5.657C34.046,6.053,29.268,4,24,4C12.955,4,4,12.955,4,24c0,11.045,8.955,20,20,20c11.045,0,20-8.955,20-20C44,22.659,43.862,21.35,43.611,20.083z"></path>
    <path fill="#FF3D00" d="M6.306,14.691l6.571,4.819C14.655,15.108,18.961,12,24,12c3.059,0,5.842,1.154,7.961,3.039l5.657-5.657C34.046,6.053,29.268,4,24,4C16.318,4,9.656,8.337,6.306,14.691z"></path>
    <path fill="#4CAF50" d="M24,44c5.166,0,9.86-1.977,13.409-5.192l-6.19-5.238C29.211,35.091,26.715,36,24,36c-5.202,0-9.619-3.317-11.283-7.946l-6.522,5.025C9.505,39.556,16.227,44,24,44z"></path>
    <path fill="#1976D2" d="M43.611,20.083H42V20H24v8h11.303c-0.792,2.237-2.231,4.166-4.087,5.571c0.001-0.001,0.002-0.001,0.003-0.002l6.19,5.238C36.971,39.205,44,34,44,24C44,22.659,43.862,21.35,43.611,20.083z"></path>
  </symbol>
  <symbol id="phone-svg" xmlns="http://www.w3.org/2000/svg" viewBox="0 0 20 20">
    <path fill="currentColor" d="M.21,4.42c.05-.29.09-.58.16-.86.1-.4.31-.75.6-1.05.58-.58,1.16-1.15,1.73-1.73.81-.82,2.03-.71,2.76,0,.89.87,1.76,1.75,2.64,2.63.85.86.76,2.2-.2,2.84-.19.13-.41.2-.62.3-.68.3-1.14.98-1.06,1.72.04.39.17.79.35,1.14.96,1.88,2.39,3.28,4.33,4.13.67.29,1.32.26,1.94-.16.33-.23.53-.55.68-.92.46-1.16,1.91-1.59,2.83-.75,1.05.95,2.04,1.98,3.01,3.01.51.54.52,1.23.25,1.9-.11.27-.3.52-.5.73-.52.56-1.08,1.08-1.61,1.63-.44.45-.96.7-1.58.77-.04,0-.07.02-.11.03h-.88c-.32-.06-.64-.11-.95-.19-1.47-.36-2.79-1.05-4.05-1.86-1.49-.96-2.85-2.08-4.1-3.33-1.8-1.79-3.37-3.75-4.51-6.03-.43-.87-.79-1.76-.96-2.72-.06-.31-.09-.63-.14-.94,0-.1,0-.2,0-.31Z"></path>
  </symbol>
    <symbol id="web-lang" fill="#403d3d" xmlns="http://www.w3.org/2000/svg" xmlns:xlink="http://www.w3.org/1999/xlink" viewBox="0 0 921 921" style="enable-background: new 0 0 921 921;" xml:space="preserve">
      <g>
          <g>
              <path fill="#403d3d"
                  d="M648.5,794.6c-23.5,44.5-51.2,79.5-82.1,104.2c-6.801,5.5-13.7,10.3-20.801,14.7c98.5-18.4,186-68.1,251.7-138.4
        c-6.1-3.699-12.5-7.3-19.1-10.8c-29.8-15.8-63.101-29.1-99.101-39.6C670.2,749.4,660,772.9,648.5,794.6z"
              />
              <path fill="#403d3d" d="M478,660c62.4,1.2,122.7,8.8,178.3,22.3C674.9,620.5,685.4,550.8,686.8,478H478V660z" />
              <path
                  d="M478,902.5c22.8-3.5,45.1-13.9,66.6-31c27.2-21.7,51.7-53.1,73-93.3c10.301-19.4,19.5-40.4,27.601-62.601
        C593.1,703.2,536.6,696.2,478,695V902.5L478,902.5z"
              />
              <path fill="#403d3d"
                  d="M231,229.6c-37.8-11.2-73-25.2-104.5-41.9c-9-4.8-17.7-9.7-26-14.9C40.8,247.4,3.8,340.9,0,443h199.2
        C200.7,367.2,211.6,294.5,231,229.6z"
              />
              <path fill="#403d3d"
                  d="M820.5,172.8c-8.3,5.1-16.9,10.1-26,14.9c-31.5,16.7-66.7,30.7-104.5,41.9c19.4,64.9,30.3,137.6,31.8,213.4H921
        C917.2,340.9,880.2,247.4,820.5,172.8z"
              />
              <path fill="#403d3d"
                  d="M376.4,871.5c21.399,17.1,43.8,27.5,66.6,31V695c-58.6,1.2-115.1,8.2-167.2,20.6C283.9,737.8,293.1,758.7,303.4,778.2
        C324.7,818.4,349.3,849.8,376.4,871.5z"
              />
              <path fill="#403d3d" d="M443,660V478H234.2c1.5,72.8,12,142.5,30.5,204.3C320.3,668.9,380.6,661.2,443,660z" />
              <path fill="#403d3d" d="M234.2,443H443V261c-62.4-1.2-122.7-8.8-178.3-22.3C246.2,300.5,235.6,370.2,234.2,443z" />
              <path
                  fill="#403d3d" d="M721.8,478c-1.5,75.8-12.399,148.5-31.8,213.4C727.8,702.6,763,716.6,794.5,733.3c9,4.8,17.7,9.7,26,14.9
        C880.2,673.6,917.2,580,921,478H721.8L721.8,478z"
              />
              <path fill="#403d3d" d="M478,443h208.8c-1.5-72.8-12-142.5-30.5-204.3C600.7,252.2,540.4,259.8,478,261V443z" />
              <path
                  fill="#403d3d" d="M478,18.5V226c58.6-1.2,115.1-8.2,167.2-20.6c-8.101-22.2-17.3-43.1-27.601-62.6c-21.3-40.2-45.8-71.6-73-93.3
        C523.1,32.4,500.8,22,478,18.5z"
              />
              <path
                  fill="#403d3d" d="M123.7,145.9c6.1,3.7,12.5,7.3,19.1,10.8c29.8,15.8,63.1,29.1,99.1,39.6c8.9-24.8,19.1-48.2,30.6-69.9
        c23.5-44.5,51.2-79.5,82.1-104.2c6.801-5.5,13.7-10.3,20.801-14.7C276.9,25.9,189.4,75.6,123.7,145.9z"
              />
              <path
                  fill="#403d3d" d="M443,18.5c-22.8,3.5-45.1,13.9-66.6,31c-27.2,21.7-51.7,53.1-73,93.3c-10.301,19.4-19.5,40.4-27.601,62.6
        C327.9,217.8,384.4,224.8,443,226V18.5z"
              />
              <path
                  fill="#403d3d" d="M126.4,733.3c31.5-16.7,66.7-30.7,104.5-41.899C211.5,626.5,200.6,553.8,199.1,478H0c3.8,102.1,40.8,195.6,100.5,270.2
        C108.7,743.1,117.4,738.1,126.4,733.3z"
              />
              <path
                  fill="#403d3d" d="M123.7,775.1c65.7,70.301,153.2,120,251.7,138.4c-7-4.3-13.9-9.2-20.801-14.7C323.7,874.1,296,839,272.5,794.6
        C261,772.9,250.8,749.5,241.9,724.7c-35.9,10.6-69.2,23.899-99.1,39.6C136.2,767.8,129.8,771.4,123.7,775.1z"
              />
              <path
                  fill="#403d3d" d="M648.5,126.4c11.5,21.7,21.7,45.1,30.6,69.9c35.9-10.6,69.2-23.9,99.101-39.6c6.6-3.5,13-7.1,19.1-10.8
        C731.6,75.6,644.1,25.9,545.6,7.5c7,4.3,13.9,9.2,20.801,14.7C597.3,46.9,625,82,648.5,126.4z"
              />
          </g>
      </g>
  </symbol>
  <symbol viewBox="0 0 24 24" xmlns="http://www.w3.org/2000/svg" id="lang-icon">
    <path fill="none" stroke="currentColor" stroke-width="1" d="M12,23 C18.0751322,23 23,18.0751322 23,12 C23,5.92486775 18.0751322,1 12,1 C5.92486775,1 1,5.92486775 1,12 C1,18.0751322 5.92486775,23 12,23 Z M12,23 C15,23 16,18 16,12 C16,6 15,1 12,1 C9,1 8,6 8,12 C8,18 9,23 12,23 Z M2,16 L22,16 M2,8 L22,8"/>
  </symbol>
  <symbol stroke="currentColor" stroke-width="2" viewBox="0 0 24 24" id="cross" data-name="Line Color" xmlns="http://www.w3.org/2000/svg" >
    <line id="primary" x1="19" y1="19" x2="5" y2="5"></line>
    <line id="primary-2" data-name="primary" x1="19" y1="5" x2="5" y2="19"></line>
  </symbol>

   <symbol id="search-button" version="1.1" viewBox="0 0 24 24" xmlns="http://www.w3.org/2000/svg" xmlns:xlink="http://www.w3.org/1999/xlink">
    <g fill="none">
        <path  d="M0 0h24v24h-24Z"></path>
        <path
            stroke="currentColor"
            stroke-linecap="round"
            stroke-linejoin="round"
            stroke-width="1.5"
            d="M14.1931 5.58187c2.33182 2.33182 2.33182 6.11245 0 8.44427 -2.33182 2.33182-6.11245 2.33182-8.44427 0 -2.33182-2.33182-2.33182-6.11245-1.77636e-15-8.44427 2.33182-2.33182 6.11245-2.33182 8.44427-1.77636e-15"
        ></path>
        <path stroke="currentColor" stroke-linecap="round" stroke-linejoin="round" stroke-width="1.5" d="M14.15 14.06l5.85 5.93"></path>
    </g>
  </symbol>

  <symbol version="1.1" xmlns="http://www.w3.org/2000/svg" xmlns:xlink="http://www.w3.org/1999/xlink" viewBox="0 0 24 24" id="arrow-left">
    <g stroke-linecap="round" stroke-width="1.5" stroke="CurrentColor" fill="none" stroke-linejoin="round">
      <path d="M5,12h14"></path>
      <path d="M10,7l-5,5"></path>
      <path d="M10,17l-5,-5"></path>
    </g>
    <path fill="none" d="M0,0h24v24h-24Z"></path>
  </symbol>

  <symbol version="1.1" xmlns="http://www.w3.org/2000/svg" xmlns:xlink="http://www.w3.org/1999/xlink" viewBox="0 0 24 24" id="arrow-right">
    <g stroke-linecap="round" stroke-width="1.5" stroke="CurrentColor" fill="none" stroke-linejoin="round">
      <path d="M19,12h-14"></path>
      <path d="M14,17l5,-5"></path>
      <path d="M14,7l5,5"></path>
    </g>
    <path fill="none" d="M0,0h24v24h-24Z"></path>
  </symbol>

  <symbol fill="currentColor" viewBox="0 0 24 24" id="minus" data-name="Line Color" xmlns="http://www.w3.org/2000/svg">
      <line x1="19" y1="12" x2="5" y2="12"></line>
  </symbol>

  <symbol fill="currentColor" viewBox="0 0 24 24" id="plus" data-name="Line Color" xmlns="http://www.w3.org/2000/svg" >
    <path id="primary" d="M5,12H19M12,5V19" style="fill: none; stroke: rgb(0, 0, 0); stroke-linecap: round; stroke-linejoin: round; stroke-width: 2;"></path>
  </symbol>

  <symbol version="1.1" xmlns="http://www.w3.org/2000/svg" xmlns:xlink="http://www.w3.org/1999/xlink" viewBox="0 0 24 24" id="chevron-down">
    <path d="M8,10l4,4l4,-4" stroke-linecap="round" stroke-width="1.5" stroke="CurrentColor" fill="none" stroke-linejoin="round"></path>
    <path fill="none" d="M0,0h24v24h-24Z"></path>
  </symbol>

  <symbol version="1.1" xmlns="http://www.w3.org/2000/svg" xmlns:xlink="http://www.w3.org/1999/xlink" viewBox="0 0 24 24" id="chevron-left">
    <path d="M14,8l-4,4l4,4" stroke-linecap="round" stroke-width="1.5" stroke="CurrentColor" fill="none" stroke-linejoin="round"></path>
    <path fill="none" d="M0,0h24v24h-24Z"></path>
  </symbol>

  <symbol version="1.1" xmlns="http://www.w3.org/2000/svg" xmlns:xlink="http://www.w3.org/1999/xlink" viewBox="0 0 24 24" id="chevron-right">
    <g fill="none">
      <path d="M0 0h24v24h-24Z"></path>
      <path stroke="CurrentColor" stroke-linecap="round" stroke-linejoin="round" stroke-width="1.5" d="M10 16l4-4 -4-4"></path>
    </g>
  </symbol>

  <symbol id="mail" viewBox="0 0 24 24">
    <g stroke-linecap="round" stroke-width="1.5" stroke="currentColor" fill="none" stroke-linejoin="round">
      <path d="M3,6.782v0c0,0.591 0.293,1.144 0.782,1.475l5.981,4.053c1.355,0.918 3.133,0.918 4.488,0l5.966,-4.044c0.49,-0.33 0.783,-0.883 0.783,-1.474v-0.01c0,-0.984 -0.798,-1.782 -1.782,-1.782h-14.436c-0.984,0 -1.782,0.798 -1.782,1.782Z"/>
      <path d="M3,7v10c0,1.105 0.895,2 2,2h14c1.105,0 2,-0.895 2,-2v-10"/>
      <path d="M3.586,18.414l6.14,-6.14"/>
      <path d="M14.281,12.281l6.13,6.13"/>
    </g>
  </symbol>

    <symbol id="maps-marker" viewBox="0 0 24 24" fill="none" xmlns="http://www.w3.org/2000/svg">
        <path fill-rule="evenodd" clip-rule="evenodd" d="M10 10C11.3807 10 12.5 8.88071 12.5 7.5C12.5 6.11929 11.3807 5 10 5C8.61929 5 7.5 6.11929 7.5 7.5C7.5 8.88071 8.61929 10 10 10ZM10 7C10.2761 7 10.5 7.22386 10.5 7.5C10.5 7.77614 10.2761 8 10 8C9.72386 8 9.5 7.77614 9.5 7.5C9.5 7.22386 9.72386 7 10 7Z" fill="#000000"/>
        <path fill-rule="evenodd" clip-rule="evenodd" d="M5 7.28555C5 10.1987 7.80453 15 10 15C12.1955 15 15 10.1987 15 7.28555C15 4.38124 12.7774 2 10 2C7.22258 2 5 4.38124 5 7.28555ZM13 7.28555C13 9.2396 10.8035 13 10 13C9.19652 13 7 9.2396 7 7.28555C7 5.45617 8.35914 4 10 4C11.6409 4 13 5.45617 13 7.28555Z" fill="#000000"/>
        <path d="M13.7298 10C13.1775 10 12.7298 9.55228 12.7298 9C12.7298 8.44772 13.1775 8 13.7298 8C15.0774 8 16.2597 8.89861 16.6204 10.1971L18.0093 15.1971C18.4527 16.7935 17.5181 18.4471 15.9216 18.8906C15.6602 18.9632 15.3901 19 15.1187 19H4.88128C3.22442 19 1.88128 17.6569 1.88128 16C1.88128 15.7286 1.9181 15.4585 1.99073 15.1971L3.37961 10.1971C3.7403 8.89861 4.92254 8 6.27017 8C6.82245 8 7.27017 8.44772 7.27017 9C7.27017 9.55228 6.82245 10 6.27017 10C5.82096 10 5.42688 10.2995 5.30665 10.7324L3.91776 15.7324C3.89355 15.8195 3.88128 15.9095 3.88128 16C3.88128 16.5523 4.32899 17 4.88128 17H15.1187C15.2092 17 15.2992 16.9877 15.3864 16.9635C15.9185 16.8157 16.23 16.2645 16.0822 15.7324L14.6933 10.7324C14.5731 10.2995 14.179 10 13.7298 10Z" fill="#000000"/>
    </symbol>
    <symbol id="map-marker" fill="currentColor" viewBox="0 0 24 24" xmlns="http://www.w3.org/2000/svg">
        <path fill-rule="evenodd" d="M11.291 21.706 12 21l-.709.706zM12 21l.708.706a1 1 0 0 1-1.417 0l-.006-.007-.017-.017-.062-.063a47.708 47.708 0 0 1-1.04-1.106 49.562 49.562 0 0 1-2.456-2.908c-.892-1.15-1.804-2.45-2.497-3.734C4.535 12.612 4 11.248 4 10c0-4.539 3.592-8 8-8 4.408 0 8 3.461 8 8 0 1.248-.535 2.612-1.213 3.87-.693 1.286-1.604 2.585-2.497 3.735a49.583 49.583 0 0 1-3.496 4.014l-.062.063-.017.017-.006.006L12 21zm0-8a3 3 0 1 0 0-6 3 3 0 0 0 0 6z" clip-rule="evenodd"></path>
    </symbol>


  <symbol id="phone-call" viewBox="0 0 24 24">
    <g stroke-linecap="round" stroke-width="1.5" stroke="currentColor" fill="none" stroke-linejoin="round">
      <path d="M18.965,16.61l-1.173,-1.173c-0.586,-0.586 -1.536,-0.586 -2.121,0l-0.922,0.922c-0.206,0.206 -0.518,0.275 -0.784,0.158c-1.336,-0.585 -2.656,-1.472 -3.833,-2.649c-1.172,-1.172 -2.056,-2.486 -2.642,-3.817c-0.122,-0.275 -0.051,-0.598 0.162,-0.811l0.826,-0.826c0.671,-0.671 0.671,-1.62 0.085,-2.206l-1.173,-1.173c-0.781,-0.781 -2.047,-0.781 -2.828,0l-0.652,0.651c-0.741,0.741 -1.05,1.81 -0.85,2.87c0.494,2.613 2.012,5.474 4.461,7.923c2.449,2.449 5.31,3.967 7.923,4.461c1.06,0.2 2.129,-0.109 2.87,-0.85l0.651,-0.651c0.781,-0.781 0.781,-2.047 0,-2.829Z"/>
      <path d="M13,6.991c1.031,-0.014 2.067,0.368 2.854,1.155"/>
      <path d="M18.682,5.318c-1.569,-1.569 -3.626,-2.354 -5.682,-2.354"/>
      <path d="M17.009,11c0.014,-1.031 -0.368,-2.067 -1.155,-2.854"/>
      <path d="M18.682,5.318c1.569,1.569 2.354,3.626 2.354,5.682"/>
    </g>
    <path fill="none" d="M0,0h24v24h-24Z"/>
  </symbol>

  <!-- Mail İkonu -->


  <symbol version="1.1" xmlns="http://www.w3.org/2000/svg" xmlns:xlink="http://www.w3.org/1999/xlink" viewBox="0 0 24 24" id="phone">
    <path fill="currentColor" stroke="none" d="M10.856,13.144c-1.17,-1.17 -2.052,-2.48 -2.638,-3.809c-0.124,-0.281 -0.051,-0.61 0.166,-0.827l0.819,-0.818c0.671,-0.671 0.671,-1.62 0.085,-2.206l-1.174,-1.174c-0.781,-0.781 -2.047,-0.781 -2.828,0l-0.652,0.652c-0.741,0.741 -1.05,1.81 -0.85,2.87c0.494,2.613 2.012,5.474 4.461,7.923c2.449,2.449 5.31,3.967 7.923,4.461c1.06,0.2 2.129,-0.109 2.87,-0.85l0.651,-0.651c0.781,-0.781 0.781,-2.047 0,-2.828l-1.173,-1.173c-0.586,-0.586 -1.536,-0.586 -2.121,0l-0.903,0.904c-0.217,0.217 -0.546,0.29 -0.827,0.166c-1.329,-0.587 -2.639,-1.47 -3.809,-2.64Z" stroke-linecap="round" stroke-width="1.5" stroke="CurrentColor" fill="none" stroke-linejoin="round"></path>
    <path fill="none" d="M0,0h24v24h-24Z"></path>
  </symbol>

  <symbol id="tick" viewBox="0 0 16 16" xmlns="http://www.w3.org/2000/svg" version="1.1" fill="none" stroke="currentColor" stroke-linecap="round" stroke-linejoin="round" stroke-width="1.5">
      <path d="m14.25 8.75c-.5 2.5-2.3849 4.85363-5.03069 5.37991-2.64578.5263-5.33066-.7044-6.65903-3.0523-1.32837-2.34784-1.00043-5.28307.81336-7.27989 1.81379-1.99683 4.87636-2.54771 7.37636-1.54771" />
      <polyline points="5.75 7.75,8.25 10.25,14.25 3.75" />
  </symbol>

  <symbol fill="currentColor" id="star" viewBox="0 0 24 24" data-name="Flat Color" xmlns="http://www.w3.org/2000/svg" >
    <path
        d="M22,9.81a1,1,0,0,0-.83-.69l-5.7-.78L12.88,3.53a1,1,0,0,0-1.76,0L8.57,8.34l-5.7.78a1,1,0,0,0-.82.69,1,1,0,0,0,.28,1l4.09,3.73-1,5.24A1,1,0,0,0,6.88,20.9L12,18.38l5.12,2.52a1,1,0,0,0,.44.1,1,1,0,0,0,1-1.18l-1-5.24,4.09-3.73A1,1,0,0,0,22,9.81Z"
    ></path>
  </symbol>

  <symbol id="date" viewBox="0 0 20 20" xmlns="http://www.w3.org/2000/svg">
    <path
        fill="currentColor"
        d="M5.67326018,0 C6.0598595,0 6.37326018,0.31324366 6.37326018,0.699649298 L6.373,2.009 L13.89,2.009 L13.8901337,0.708141199 C13.8901337,0.321735562 14.2035343,0.00849190182 14.5901337,0.00849190182 C14.976733,0.00849190182 15.2901337,0.321735562 15.2901337,0.708141199 L15.29,2.009 L18,2.00901806 C19.1045695,2.00901806 20,2.90399995 20,4.00801605 L20,18.001002 C20,19.1050181 19.1045695,20 18,20 L2,20 C0.8954305,20 0,19.1050181 0,18.001002 L0,4.00801605 C0,2.90399995 0.8954305,2.00901806 2,2.00901806 L4.973,2.009 L4.97326018,0.699649298 C4.97326018,0.31324366 5.28666085,0 5.67326018,0 Z M1.4,7.742 L1.4,18.001002 C1.4,18.3322068 1.66862915,18.6007014 2,18.6007014 L18,18.6007014 C18.3313708,18.6007014 18.6,18.3322068 18.6,18.001002 L18.6,7.756 L1.4,7.742 Z M6.66666667,14.6186466 L6.66666667,16.284778 L5,16.284778 L5,14.6186466 L6.66666667,14.6186466 Z M10.8333333,14.6186466 L10.8333333,16.284778 L9.16666667,16.284778 L9.16666667,14.6186466 L10.8333333,14.6186466 Z M15,14.6186466 L15,16.284778 L13.3333333,16.284778 L13.3333333,14.6186466 L15,14.6186466 Z M6.66666667,10.6417617 L6.66666667,12.3078931 L5,12.3078931 L5,10.6417617 L6.66666667,10.6417617 Z M10.8333333,10.6417617 L10.8333333,12.3078931 L9.16666667,12.3078931 L9.16666667,10.6417617 L10.8333333,10.6417617 Z M15,10.6417617 L15,12.3078931 L13.3333333,12.3078931 L13.3333333,10.6417617 L15,10.6417617 Z M4.973,3.408 L2,3.40831666 C1.66862915,3.40831666 1.4,3.67681122 1.4,4.00801605 L1.4,6.343 L18.6,6.357 L18.6,4.00801605 C18.6,3.67681122 18.3313708,3.40831666 18,3.40831666 L15.29,3.408 L15.2901337,4.33697436 C15.2901337,4.72338 14.976733,5.03662366 14.5901337,5.03662366 C14.2035343,5.03662366 13.8901337,4.72338 13.8901337,4.33697436 L13.89,3.408 L6.373,3.408 L6.37326018,4.32848246 C6.37326018,4.7148881 6.0598595,5.02813176 5.67326018,5.02813176 C5.28666085,5.02813176 4.97326018,4.7148881 4.97326018,4.32848246 L4.973,3.408 Z"
    />
  </symbol>

  <symbol id="facebook" fill="currentColor" viewBox="-7 -2 24 24" xmlns="http://www.w3.org/2000/svg">
      <path d="M2.046 3.865v2.748H.032v3.36h2.014v9.986H6.18V9.974h2.775s.26-1.611.386-3.373H6.197V4.303c0-.343.45-.805.896-.805h2.254V0H6.283c-4.34 0-4.237 3.363-4.237 3.865z" />
  </symbol>

  <symbol id="instagram" fill="currentColor" viewBox="0 0 24 24" xmlns="http://www.w3.org/2000/svg">
    <path
        d="M17.34,5.46h0a1.2,1.2,0,1,0,1.2,1.2A1.2,1.2,0,0,0,17.34,5.46Zm4.6,2.42a7.59,7.59,0,0,0-.46-2.43,4.94,4.94,0,0,0-1.16-1.77,4.7,4.7,0,0,0-1.77-1.15,7.3,7.3,0,0,0-2.43-.47C15.06,2,14.72,2,12,2s-3.06,0-4.12.06a7.3,7.3,0,0,0-2.43.47A4.78,4.78,0,0,0,3.68,3.68,4.7,4.7,0,0,0,2.53,5.45a7.3,7.3,0,0,0-.47,2.43C2,8.94,2,9.28,2,12s0,3.06.06,4.12a7.3,7.3,0,0,0,.47,2.43,4.7,4.7,0,0,0,1.15,1.77,4.78,4.78,0,0,0,1.77,1.15,7.3,7.3,0,0,0,2.43.47C8.94,22,9.28,22,12,22s3.06,0,4.12-.06a7.3,7.3,0,0,0,2.43-.47,4.7,4.7,0,0,0,1.77-1.15,4.85,4.85,0,0,0,1.16-1.77,7.59,7.59,0,0,0,.46-2.43c0-1.06.06-1.4.06-4.12S22,8.94,21.94,7.88ZM20.14,16a5.61,5.61,0,0,1-.34,1.86,3.06,3.06,0,0,1-.75,1.15,3.19,3.19,0,0,1-1.15.75,5.61,5.61,0,0,1-1.86.34c-1,.05-1.37.06-4,.06s-3,0-4-.06A5.73,5.73,0,0,1,6.1,19.8,3.27,3.27,0,0,1,5,19.05a3,3,0,0,1-.74-1.15A5.54,5.54,0,0,1,3.86,16c0-1-.06-1.37-.06-4s0-3,.06-4A5.54,5.54,0,0,1,4.21,6.1,3,3,0,0,1,5,5,3.14,3.14,0,0,1,6.1,4.2,5.73,5.73,0,0,1,8,3.86c1,0,1.37-.06,4-.06s3,0,4,.06a5.61,5.61,0,0,1,1.86.34A3.06,3.06,0,0,1,19.05,5,3.06,3.06,0,0,1,19.8,6.1,5.61,5.61,0,0,1,20.14,8c.05,1,.06,1.37.06,4S20.19,15,20.14,16ZM12,6.87A5.13,5.13,0,1,0,17.14,12,5.12,5.12,0,0,0,12,6.87Zm0,8.46A3.33,3.33,0,1,1,15.33,12,3.33,3.33,0,0,1,12,15.33Z"
    />
  </symbol>

  <symbol viewBox="0 0 512 512" xmlns="http://www.w3.org/2000/svg" id="whatsapp">
      <path fill="currentColor" fill-rule="evenodd"; d="M414.73,97.1A222.14,222.14,0,0,0,256.94,32C134,32,33.92,131.58,33.87,254A220.61,220.61,0,0,0,63.65,365L32,480l118.25-30.87a223.63,223.63,0,0,0,106.6,27h.09c122.93,0,223-99.59,223.06-222A220.18,220.18,0,0,0,414.73,97.1ZM256.94,438.66h-.08a185.75,185.75,0,0,1-94.36-25.72l-6.77-4L85.56,427.26l18.73-68.09-4.41-7A183.46,183.46,0,0,1,71.53,254c0-101.73,83.21-184.5,185.48-184.5A185,185,0,0,1,442.34,254.14C442.3,355.88,359.13,438.66,256.94,438.66ZM358.63,300.47c-5.57-2.78-33-16.2-38.08-18.05s-8.83-2.78-12.54,2.78-14.4,18-17.65,21.75-6.5,4.16-12.07,1.38-23.54-8.63-44.83-27.53c-16.57-14.71-27.75-32.87-31-38.42s-.35-8.56,2.44-11.32c2.51-2.49,5.57-6.48,8.36-9.72s3.72-5.56,5.57-9.26.93-6.94-.46-9.71-12.54-30.08-17.18-41.19c-4.53-10.82-9.12-9.35-12.54-9.52-3.25-.16-7-.2-10.69-.2a20.53,20.53,0,0,0-14.86,6.94c-5.11,5.56-19.51,19-19.51,46.28s20,53.68,22.76,57.38,39.3,59.73,95.21,83.76a323.11,323.11,0,0,0,31.78,11.68c13.35,4.22,25.5,3.63,35.1,2.2,10.71-1.59,33-13.42,37.63-26.38s4.64-24.06,3.25-26.37S364.21,303.24,358.63,300.47Z" />
  </symbol>
  
  <symbol id="youtube" xmlns="http://www.w3.org/2000/svg" viewBox="-2 -5 24 24" fill="currentColor">
    <path
        d="M15.812.017H4.145C1.855.017 0 1.852 0 4.116v5.768c0 2.264 1.856 4.1 4.145 4.1h11.667c2.29 0 4.145-1.836 4.145-4.1V4.116c0-2.264-1.856-4.1-4.145-4.1zM13.009 7.28 7.552 9.855a.219.219 0 0 1-.314-.196V4.35a.22.22 0 0 1 .318-.193l5.458 2.735a.216.216 0 0 1-.005.389z"
    />
  </symbol>

  <symbol id="linkedin" fill="currentColor" viewBox="-2 -2 24 24" xmlns="http://www.w3.org/2000/svg">
    <path
        d="M19.959 11.719v7.379h-4.278v-6.885c0-1.73-.619-2.91-2.167-2.91-1.182 0-1.886.796-2.195 1.565-.113.275-.142.658-.142 1.043v7.187h-4.28s.058-11.66 0-12.869h4.28v1.824l-.028.042h.028v-.042c.568-.875 1.583-2.126 3.856-2.126 2.815 0 4.926 1.84 4.926 5.792zM2.421.026C.958.026 0 .986 0 2.249c0 1.235.93 2.224 2.365 2.224h.028c1.493 0 2.42-.989 2.42-2.224C4.787.986 3.887.026 2.422.026zM.254 19.098h4.278V6.229H.254v12.869z"
    />
  </symbol>

  <symbol fill="currentColor" version="1.1" id="twitter-x" xmlns:svg="http://www.w3.org/2000/svg" xmlns="http://www.w3.org/2000/svg" xmlns:xlink="http://www.w3.org/1999/xlink" x="0px" y="0px" viewBox="0 0 1668.56 1221.19"  style="enable-background:new 0 0 1668.56 1221.19;" xml:space="preserve">
    <g id="layer1" transform="translate(52.390088,-25.058597)">
      <path id="path1009" d="M283.94,167.31l386.39,516.64L281.5,1104h87.51l340.42-367.76L984.48,1104h297.8L874.15,558.3l361.92-390.99
        h-87.51l-313.51,338.7l-253.31-338.7H283.94z M412.63,231.77h136.81l604.13,807.76h-136.81L412.63,231.77z"/>
    </g>
  </symbol>

  <symbol id="headphones-icon" viewBox="0 0 512 512">
    <path fill="white" d="M160 288h-16c-35.35 0-64 28.7-64 64.12v63.76c0 35.41 28.65 64.12 64 64.12h16c17.67 0 32-14.36 32-32.06V320.06c0-17.71-14.33-32.06-32-32.06zm208 0h-16c-17.67 0-32 14.35-32 32.06v127.88c0 17.7 14.33 32.06 32 32.06h16c35.35 0 64-28.71 64-64.12v-63.76c0-35.41-28.65-64.12-64-64.12zM256 32C112.91 32 4.57 151.13 0 288v112c0 8.84 7.16 16 16 16h16c8.84 0 16-7.16 16-16V288c0-114.67 93.33-207.8 208-207.82 114.67.02 208 93.15 208 207.82v112c0 8.84 7.16 16 16 16h16c8.84 0 16-7.16 16-16V288C507.43 151.13 399.09 32 256 32z"/>
  </symbol>

  <symbol id="submit-icon" xmlns="http://www.w3.org/2000/svg" id="katman_1" data-name="katman 1" viewBox="0 0 30 30">
    <path fill="#8d937f" d="M20.04,30h-.64c-.59-.17-1.09-.52-1.32-1.11l-3.48-10.46,6.73-9.75-9.76,6.72L.8,11.77c-.42-.28-.66-.68-.8-1.16v-.64c.21-.63.54-1.07,1.16-1.33L27.98,0c1.16-.13,2.12.78,2.01,1.95l-8.62,26.88c-.26.62-.71.95-1.33,1.16Z"/>
  </symbol>

  <symbol id="phone-call-grd" xmlns="http://www.w3.org/2000/svg" viewBox="0 0 24 24">
    
    <g stroke-linecap="round" stroke-width="1.5" stroke="url(#phoneGradient)" fill="none" stroke-linejoin="round">
      <path d="M18.965,16.61l-1.173,-1.173c-0.586,-0.586 -1.536,-0.586 -2.121,0l-0.922,0.922c-0.206,0.206 -0.518,0.275 -0.784,0.158c-1.336,-0.585 -2.656,-1.472 -3.833,-2.649c-1.172,-1.172 -2.056,-2.486 -2.642,-3.817c-0.122,-0.275 -0.051,-0.598 0.162,-0.811l0.826,-0.826c0.671,-0.671 0.671,-1.62 0.085,-2.206l-1.173,-1.173c-0.781,-0.781 -2.047,-0.781 -2.828,0l-0.652,0.651c-0.741,0.741 -1.05,1.81 -0.85,2.87c0.494,2.613 2.012,5.474 4.461,7.923c2.449,2.449 5.31,3.967 7.923,4.461c1.06,0.2 2.129,-0.109 2.87,-0.85l0.651,-0.651c0.781,-0.781 0.781,-2.047 0,-2.829Z"/>
      <path d="M13,6.991c1.031,-0.014 2.067,0.368 2.854,1.155"/>
      <path d="M18.682,5.318c-1.569,-1.569 -3.626,-2.354 -5.682,-2.354"/>
      <path d="M17.009,11c0.014,-1.031 -0.368,-2.067 -1.155,-2.854"/>
      <path d="M18.682,5.318c1.569,1.569 2.354,3.626 2.354,5.682"/>
    </g>
  </symbol>

  <symbol id="mail-grd" xmlns="http://www.w3.org/2000/svg" viewBox="0 0 24 24">
    <g stroke-linecap="round" stroke-width="1.5" stroke="url(#mailGradient)" fill="none" stroke-linejoin="round">
      <path d="M3,6.782v0c0,0.591 0.293,1.144 0.782,1.475l5.981,4.053c1.355,0.918 3.133,0.918 4.488,0l5.966,-4.044c0.49,-0.33 0.783,-0.883 0.783,-1.474v-0.01c0,-0.984 -0.798,-1.782 -1.782,-1.782h-14.436c-0.984,0 -1.782,0.798 -1.782,1.782Z"/>
      <path d="M3,7v10c0,1.105 0.895,2 2,2h14c1.105,0 2,-0.895 2,-2v-10"/>
      <path d="M3.586,18.414l6.14,-6.14"/>
      <path d="M14.281,12.281l6.13,6.13"/>
    </g>
  </symbol>

</svg>